<svg viewBox="0 0 24 24" width="24" height="24" fill="none" xmlns="http://www.w3.org/2000/svg">
  <path d="M12.04 2C6.58 2 2.13 6.45 2.13 11.91C2.13 13.66 2.59 15.36 3.45 16.86L2.05 22L7.3 20.62C8.75 21.41 10.38 21.83 12.04 21.83C17.5 21.83 21.95 17.38 21.95 11.92C21.95 9.27 20.92 6.78 19.05 4.91C17.18 3.03 14.69 2 12.04 2Z" fill="#25D366"/>
  <path fill-rule="evenodd" clip-rule="evenodd" d="M12.04 3.67C7.5 3.67 3.8 7.37 3.8 11.91C3.8 13.51 4.26 15.06 5.12 16.41L5.33 16.74L4.5 19.78L7.61 18.96L7.93 19.15C9.22 19.92 10.61 20.33 12.04 20.33C16.58 20.33 20.28 16.63 20.28 11.91C20.28 7.37 16.58 3.67 12.04 3.67ZM16.92 14.53C16.65 14.4 15.33 13.75 15.08 13.66C14.83 13.57 14.65 13.52 14.47 13.79C14.29 14.06 13.77 14.67 13.61 14.85C13.45 15.03 13.29 15.05 13.02 14.92C12.75 14.79 11.88 14.5 10.84 13.57C10.03 12.85 9.48 11.96 9.32 11.69C9.16 11.42 9.3 11.27 9.43 11.14C9.56 11.01 9.71 10.82 9.85 10.66C9.99 10.5 10.04 10.38 10.13 10.2C10.22 10.02 10.17 9.87 10.1 9.74C10.03 9.61 9.49 8.28 9.27 7.73C9.05 7.2 8.83 7.27 8.66 7.26H8.14C7.96 7.26 7.67 7.33 7.42 7.6C7.17 7.87 6.47 8.52 6.47 9.85C6.47 11.18 7.44 12.46 7.57 12.64C7.71 12.82 9.48 15.53 12.19 16.7C12.83 16.98 13.34 17.15 13.73 17.27C14.38 17.48 14.97 17.45 15.44 17.38C15.96 17.3 17.05 16.72 17.27 16.1C17.49 15.48 17.49 14.95 17.42 14.84C17.36 14.73 17.18 14.66 16.92 14.53Z" fill="white"/>
</svg>
